<svg width="168" height="93" viewBox="0 0 168 93" fill="none" xmlns="http://www.w3.org/2000/svg">
<path d="M70.7314 30.6233V60.9244H63.2647V43.9286L58.2772 52.1189H54.3689L48.8855 43.9286V60.9244H42.0605V30.6233H48.9439L56.8189 42.5042L63.8772 30.6233H70.7314ZM72.8897 37.4864V30.6233H98.3814V37.4864H89.4564V60.9244H81.8439V37.4864H72.8897ZM126.469 30.6233V60.9244H120.198L107.365 43.6048V60.9244H100.54V30.6233H107.336L119.615 47.3277V30.6233H126.469Z" fill="#121212"/>
<path d="M84 92.5867C61.95 92.5867 41.1542 88.0221 25.4625 79.7022C9.04167 70.9939 0 59.1454 0 46.2933C0 33.4413 9.04167 21.5928 25.4625 12.8844C41.1542 4.56458 61.95 0 84 0C106.05 0 126.846 4.56458 142.537 12.8844C158.958 21.5928 168 33.4413 168 46.2933C168 59.1454 158.958 70.9939 142.537 79.7022C126.846 88.0221 106.05 92.5867 84 92.5867ZM84 6.8307C62.825 6.8307 42.9917 11.1687 28.1167 19.0677C13.9708 26.5782 6.15417 36.2577 6.15417 46.3257C6.15417 56.3937 13.9417 66.0732 28.1167 73.5514C42.9917 81.4504 62.8542 85.7883 84 85.7883C105.146 85.7883 125.008 81.4504 139.883 73.5514C154.029 66.0732 161.846 56.3613 161.846 46.3257C161.846 36.2901 154.058 26.5782 139.883 19.1C125.008 11.1687 105.175 6.8307 84 6.8307Z" fill="#121212"/>
</svg>
